<?xml version="1.0" encoding="UTF-8"?>
<!DOCTYPE svg PUBLIC "-//W3C//DTD SVG 1.1//EN" "http://www.w3.org/Graphics/SVG/1.1/DTD/svg11.dtd">
<!-- Creator: CorelDRAW X6 -->
<svg xmlns="http://www.w3.org/2000/svg" xml:space="preserve" width="67.829mm" height="19.765mm" version="1.1" style="shape-rendering:geometricPrecision; text-rendering:geometricPrecision; image-rendering:optimizeQuality; fill-rule:evenodd; clip-rule:evenodd"
viewBox="0 0 6783 1976"
 xmlns:xlink="http://www.w3.org/1999/xlink">
 <defs>
  <style type="text/css">
   <![CDATA[
    .str0 {stroke:white;stroke-width:100}
    .fil0 {fill:none}
    .fil1 {fill:#C20E14}
   ]]>
  </style>
 </defs>
 <g id="Слой_x0020_1">
  <metadata id="CorelCorpID_0Corel-Layer"/>
  <g>
   <path class="fil0 str0" d="M6032 924c0,-58 32,-37 47,-59 58,31 53,0 53,139 0,61 -100,111 -100,54l0 -134zm-2022 -50c76,-20 49,158 44,166 -18,30 -73,65 -79,10 -3,-23 1,-44 1,-69 0,-75 -13,-94 34,-107zm962 56c0,-92 89,-64 89,11l0 294c0,37 -18,53 -56,53 -22,0 -33,-22 -33,-42l0 -316zm-345 313c0,44 -41,44 -69,61 -36,22 -72,88 -95,73 -11,-7 -10,-16 -10,-28l0 -474 -30 -123c-31,-53 -49,-98 -92,-138 -52,-48 -43,-46 -109,-82 -11,-6 -8,-10 -21,-16 -54,-23 -131,-42 -192,-37 -26,2 -84,2 -106,12l-82 33c-31,28 -77,43 -106,84 -29,41 -69,56 -108,161 -6,16 -20,114 -20,135 0,89 -10,719 0,751 10,28 335,14 372,14 32,0 7,-181 19,-203 12,-22 78,-67 86,-23 7,40 -10,203 3,220 16,15 296,6 328,5 77,0 59,24 61,74 43,21 285,9 349,9 42,0 31,-13 31,-82 0,-116 -38,-85 400,-85 61,0 4,150 33,163 22,9 309,4 355,4 67,0 -13,-90 65,-85 36,3 335,14 342,-7 16,-55 -27,-174 22,-208 13,-10 75,-69 79,12 3,64 -5,135 1,198 40,19 299,8 360,8 36,0 23,-19 23,-52l0 -702 -21 -133c-9,-41 -86,-171 -121,-190 -28,-16 -74,-69 -148,-86 -51,-12 -8,-16 -132,-26 -75,-6 -181,20 -244,63 -94,63 -170,156 -189,275 -3,17 -15,44 -15,63l0 40 0 382c1,35 17,66 -19,73 -22,4 -42,-61 -99,-77 -27,-8 -55,-22 -56,-52 -6,-153 15,-312 -9,-460 -7,-47 -77,-171 -124,-198 -18,-10 -39,-37 -62,-46 -116,-46 -82,-56 -225,-63 -110,-6 -207,37 -286,108 -19,17 -38,29 -51,54 -15,28 -88,107 -88,196l0 405zm-3424 -331c0,-34 38,-46 67,-31 17,8 20,15 21,35 2,19 2,96 -2,113 -2,10 -2,11 -11,17 -21,15 -32,30 -52,33 -17,2 -23,-14 -23,-30l0 -137zm-651 767c10,0 35,3 44,-11 6,-8 3,-38 3,-51l0 -556c0,-93 -3,-179 11,-268 3,-22 11,-19 17,-37 4,-12 7,-33 13,-43 7,-13 14,-21 19,-35 5,-12 38,-58 46,-66 8,-8 6,-6 12,-16 7,-12 4,-7 13,-13 17,-10 5,-14 27,-27 12,-7 6,-4 14,-15l45 -37c7,-4 13,-7 18,-11 7,-4 9,-9 16,-13 11,-7 25,-7 37,-17 4,-3 -1,-1 7,-7 9,-6 21,-7 33,-10 17,-4 24,-9 39,-15 27,-11 62,-14 93,-14 30,0 155,-6 171,19 5,7 8,23 5,33 -12,21 -62,14 -89,19 -19,3 -17,12 -37,17 -17,5 -29,5 -44,11 -14,7 -12,13 -33,21 -9,3 -55,39 -62,47 -11,12 -18,9 -28,26 -7,12 -42,40 -51,57 -8,15 -11,24 -20,34 -13,14 -9,21 -16,39 -8,22 -14,9 -18,35 -8,49 -14,100 -14,149 0,245 -3,491 0,736 6,4 14,9 25,9l-3 0c73,0 247,4 308,-3 25,-3 50,19 50,-23l0 -114c0,-21 -4,-55 7,-69 7,-7 35,-28 45,-32 29,-9 37,0 37,29l0 154c0,25 -9,58 18,58l339 0c13,0 26,-4 36,-8 -6,-86 -2,-182 -2,-269 0,-89 0,-177 0,-266 0,-66 2,-133 0,-199 -1,-22 -8,-33 -12,-54 -3,-17 -2,-44 -3,-64 -9,-93 -18,-74 -26,-106 -5,-17 -6,-37 -15,-50 -14,-19 -14,-27 -22,-47 -4,-11 -13,-14 -25,-41 -7,-19 -17,-22 -26,-40 -7,-14 -6,-8 -15,-18 -7,-7 -7,-12 -12,-20 -6,-8 -11,-9 -18,-17 -36,-41 -92,-100 -139,-125 -14,-7 -8,-10 -18,-16 -17,-11 -28,-9 -43,-24 -11,-11 -30,-12 -45,-20 -19,-9 -20,-14 -45,-20 -46,-11 -29,-13 -49,-20l-114 -17c-11,0 -23,0 -32,-2 -44,-7 -65,-4 -108,1 -15,2 -31,0 -44,2 -23,3 -51,10 -75,12 -30,2 -35,17 -68,24 -41,9 -36,16 -63,25 -14,5 -18,3 -32,15 -12,10 -13,11 -28,17l-77 57c-11,8 -14,13 -23,20 -13,11 -12,2 -25,20 -9,12 -16,12 -23,20 -12,16 -2,12 -20,26 -7,6 -12,18 -19,26 -21,22 -16,21 -29,40 -8,12 -9,4 -15,16 -2,4 -2,4 -3,8 -6,17 -19,26 -26,43 -5,13 -5,22 -13,33 -22,28 -12,38 -25,64 -8,17 -9,7 -14,31 -9,54 -17,105 -16,161 0,31 -14,45 -14,74l0 696c0,6 3,13 5,19 94,8 189,3 283,3zm2831 -723c6,-21 5,4 19,-44 6,-22 16,-24 21,-38 7,-18 5,-34 15,-49 12,-19 10,-9 16,-44 16,-77 19,-21 28,-94 6,-43 12,-47 20,-71 9,-26 7,-66 11,-81 1,-2 14,-29 -5,-42 -9,-5 -334,-2 -359,-2 -17,18 -16,36 -16,65 0,47 -6,38 -14,67 -6,20 -5,49 -9,71 -10,69 -63,90 -64,36l0 -160c0,-40 4,-40 -6,-74 -19,-3 -24,-5 -45,-5l-291 0c-35,0 -47,14 -47,50l3 340c0,259 -6,521 -2,780 54,15 129,8 192,8 38,0 172,5 193,-6 11,-11 -2,-426 5,-446 6,-19 23,-17 35,-5 12,11 24,22 31,36 10,22 17,16 19,44 4,54 -7,357 5,370 14,10 21,7 42,7l234 0c17,0 30,-1 47,-2 35,-3 31,9 50,-7 0,-24 3,-546 -2,-571 -5,-22 -9,-20 -20,-32 -13,-17 -1,-16 -22,-32 -13,-10 -11,-18 -27,-24 -36,-14 -36,-20 -57,-45zm-1183 11c-15,0 -28,-6 -35,-14 -18,-23 -8,-45 11,-65 25,-27 59,-2 63,5 4,5 12,28 12,34 -1,14 -34,40 -51,40zm-452 691c25,19 23,7 52,9 56,3 133,2 191,2l94 -2c45,2 45,8 45,-47l0 -251c3,-41 53,-25 99,-30 45,-5 25,-8 47,-16 14,-5 39,-7 55,-11 13,-4 11,-5 20,-11 20,-14 36,-12 45,-21 8,-6 5,-7 17,-14 6,-4 15,-8 21,-14 6,-5 9,-10 16,-15 8,-7 13,-6 20,-14 7,-9 4,-11 13,-18 11,-9 8,0 17,-15 10,-18 21,-23 29,-36 5,-9 5,-13 11,-20 5,-6 11,-9 15,-17 9,-21 1,-21 20,-46 12,-16 13,-58 17,-76 12,-56 16,4 16,-114 0,-21 -17,-78 -22,-106 -6,-30 -10,-25 -21,-46 -54,-110 -84,-135 -186,-202 -8,-5 -7,-8 -19,-12 -18,-7 -32,-5 -48,-18 -28,-23 -164,-20 -201,-16 -106,13 -30,10 -101,28 -34,8 -31,16 -42,23 -24,13 -7,-6 -39,24 -9,7 -10,8 -21,13 -12,7 -7,6 -16,16 -7,8 -11,7 -18,13 -7,5 -8,11 -14,18 -7,8 -12,7 -17,16 -22,39 -25,28 -37,57 -11,25 -12,3 -24,43 -17,55 -7,20 -20,45 -21,42 -14,316 -14,369 0,171 -3,342 0,512z"/>
   <path id="1" class="fil1" d="M6032 924c0,-58 32,-37 47,-59 58,31 53,0 53,139 0,61 -100,111 -100,54l0 -134zm-2022 -50c76,-20 49,158 44,166 -18,30 -73,65 -79,10 -3,-23 1,-44 1,-69 0,-75 -13,-94 34,-107zm962 56c0,-92 89,-64 89,11l0 294c0,37 -18,53 -56,53 -22,0 -33,-22 -33,-42l0 -316zm-345 313c0,44 -41,44 -69,61 -36,22 -72,88 -95,73 -11,-7 -10,-16 -10,-28l0 -474 -30 -123c-31,-53 -49,-98 -92,-138 -52,-48 -43,-46 -109,-82 -11,-6 -8,-10 -21,-16 -54,-23 -131,-42 -192,-37 -26,2 -84,2 -106,12l-82 33c-31,28 -77,43 -106,84 -29,41 -69,56 -108,161 -6,16 -20,114 -20,135 0,89 -10,719 0,751 10,28 335,14 372,14 32,0 7,-181 19,-203 12,-22 78,-67 86,-23 7,40 -10,203 3,220 16,15 296,6 328,5 77,0 59,24 61,74 43,21 285,9 349,9 42,0 31,-13 31,-82 0,-116 -38,-85 400,-85 61,0 4,150 33,163 22,9 309,4 355,4 67,0 -13,-90 65,-85 36,3 335,14 342,-7 16,-55 -27,-174 22,-208 13,-10 75,-69 79,12 3,64 -5,135 1,198 40,19 299,8 360,8 36,0 23,-19 23,-52l0 -702 -21 -133c-9,-41 -86,-171 -121,-190 -28,-16 -74,-69 -148,-86 -51,-12 -8,-16 -132,-26 -75,-6 -181,20 -244,63 -94,63 -170,156 -189,275 -3,17 -15,44 -15,63l0 40 0 382c1,35 17,66 -19,73 -22,4 -42,-61 -99,-77 -27,-8 -55,-22 -56,-52 -6,-153 15,-312 -9,-460 -7,-47 -77,-171 -124,-198 -18,-10 -39,-37 -62,-46 -116,-46 -82,-56 -225,-63 -110,-6 -207,37 -286,108 -19,17 -38,29 -51,54 -15,28 -88,107 -88,196l0 405zm-3424 -331c0,-34 38,-46 67,-31 17,8 20,15 21,35 2,19 2,96 -2,113 -2,10 -2,11 -11,17 -21,15 -32,30 -52,33 -17,2 -23,-14 -23,-30l0 -137zm-651 767c10,0 35,3 44,-11 6,-8 3,-38 3,-51l0 -556c0,-93 -3,-179 11,-268 3,-22 11,-19 17,-37 4,-12 7,-33 13,-43 7,-13 14,-21 19,-35 5,-12 38,-58 46,-66 8,-8 6,-6 12,-16 7,-12 4,-7 13,-13 17,-10 5,-14 27,-27 12,-7 6,-4 14,-15l45 -37c7,-4 13,-7 18,-11 7,-4 9,-9 16,-13 11,-7 25,-7 37,-17 4,-3 -1,-1 7,-7 9,-6 21,-7 33,-10 17,-4 24,-9 39,-15 27,-11 62,-14 93,-14 30,0 155,-6 171,19 5,7 8,23 5,33 -12,21 -62,14 -89,19 -19,3 -17,12 -37,17 -17,5 -29,5 -44,11 -14,7 -12,13 -33,21 -9,3 -55,39 -62,47 -11,12 -18,9 -28,26 -7,12 -42,40 -51,57 -8,15 -11,24 -20,34 -13,14 -9,21 -16,39 -8,22 -14,9 -18,35 -8,49 -14,100 -14,149 0,245 -3,491 0,736 6,4 14,9 25,9l-3 0c73,0 247,4 308,-3 25,-3 50,19 50,-23l0 -114c0,-21 -4,-55 7,-69 7,-7 35,-28 45,-32 29,-9 37,0 37,29l0 154c0,25 -9,58 18,58l339 0c13,0 26,-4 36,-8 -6,-86 -2,-182 -2,-269 0,-89 0,-177 0,-266 0,-66 2,-133 0,-199 -1,-22 -8,-33 -12,-54 -3,-17 -2,-44 -3,-64 -9,-93 -18,-74 -26,-106 -5,-17 -6,-37 -15,-50 -14,-19 -14,-27 -22,-47 -4,-11 -13,-14 -25,-41 -7,-19 -17,-22 -26,-40 -7,-14 -6,-8 -15,-18 -7,-7 -7,-12 -12,-20 -6,-8 -11,-9 -18,-17 -36,-41 -92,-100 -139,-125 -14,-7 -8,-10 -18,-16 -17,-11 -28,-9 -43,-24 -11,-11 -30,-12 -45,-20 -19,-9 -20,-14 -45,-20 -46,-11 -29,-13 -49,-20l-114 -17c-11,0 -23,0 -32,-2 -44,-7 -65,-4 -108,1 -15,2 -31,0 -44,2 -23,3 -51,10 -75,12 -30,2 -35,17 -68,24 -41,9 -36,16 -63,25 -14,5 -18,3 -32,15 -12,10 -13,11 -28,17l-77 57c-11,8 -14,13 -23,20 -13,11 -12,2 -25,20 -9,12 -16,12 -23,20 -12,16 -2,12 -20,26 -7,6 -12,18 -19,26 -21,22 -16,21 -29,40 -8,12 -9,4 -15,16 -2,4 -2,4 -3,8 -6,17 -19,26 -26,43 -5,13 -5,22 -13,33 -22,28 -12,38 -25,64 -8,17 -9,7 -14,31 -9,54 -17,105 -16,161 0,31 -14,45 -14,74l0 696c0,6 3,13 5,19 94,8 189,3 283,3zm2831 -723c6,-21 5,4 19,-44 6,-22 16,-24 21,-38 7,-18 5,-34 15,-49 12,-19 10,-9 16,-44 16,-77 19,-21 28,-94 6,-43 12,-47 20,-71 9,-26 7,-66 11,-81 1,-2 14,-29 -5,-42 -9,-5 -334,-2 -359,-2 -17,18 -16,36 -16,65 0,47 -6,38 -14,67 -6,20 -5,49 -9,71 -10,69 -63,90 -64,36l0 -160c0,-40 4,-40 -6,-74 -19,-3 -24,-5 -45,-5l-291 0c-35,0 -47,14 -47,50l3 340c0,259 -6,521 -2,780 54,15 129,8 192,8 38,0 172,5 193,-6 11,-11 -2,-426 5,-446 6,-19 23,-17 35,-5 12,11 24,22 31,36 10,22 17,16 19,44 4,54 -7,357 5,370 14,10 21,7 42,7l234 0c17,0 30,-1 47,-2 35,-3 31,9 50,-7 0,-24 3,-546 -2,-571 -5,-22 -9,-20 -20,-32 -13,-17 -1,-16 -22,-32 -13,-10 -11,-18 -27,-24 -36,-14 -36,-20 -57,-45zm-1183 11c-15,0 -28,-6 -35,-14 -18,-23 -8,-45 11,-65 25,-27 59,-2 63,5 4,5 12,28 12,34 -1,14 -34,40 -51,40zm-452 691c25,19 23,7 52,9 56,3 133,2 191,2l94 -2c45,2 45,8 45,-47l0 -251c3,-41 53,-25 99,-30 45,-5 25,-8 47,-16 14,-5 39,-7 55,-11 13,-4 11,-5 20,-11 20,-14 36,-12 45,-21 8,-6 5,-7 17,-14 6,-4 15,-8 21,-14 6,-5 9,-10 16,-15 8,-7 13,-6 20,-14 7,-9 4,-11 13,-18 11,-9 8,0 17,-15 10,-18 21,-23 29,-36 5,-9 5,-13 11,-20 5,-6 11,-9 15,-17 9,-21 1,-21 20,-46 12,-16 13,-58 17,-76 12,-56 16,4 16,-114 0,-21 -17,-78 -22,-106 -6,-30 -10,-25 -21,-46 -54,-110 -84,-135 -186,-202 -8,-5 -7,-8 -19,-12 -18,-7 -32,-5 -48,-18 -28,-23 -164,-20 -201,-16 -106,13 -30,10 -101,28 -34,8 -31,16 -42,23 -24,13 -7,-6 -39,24 -9,7 -10,8 -21,13 -12,7 -7,6 -16,16 -7,8 -11,7 -18,13 -7,5 -8,11 -14,18 -7,8 -12,7 -17,16 -22,39 -25,28 -37,57 -11,25 -12,3 -24,43 -17,55 -7,20 -20,45 -21,42 -14,316 -14,369 0,171 -3,342 0,512z"/>
  </g>
 </g>
</svg>
