<?xml version="1.0" encoding="UTF-8"?>
<!DOCTYPE svg PUBLIC "-//W3C//DTD SVG 1.1//EN" "http://www.w3.org/Graphics/SVG/1.1/DTD/svg11.dtd">
<!-- Creator: CorelDRAW X6 -->
<svg xmlns="http://www.w3.org/2000/svg" xml:space="preserve" width="69.828mm" height="21.76mm" version="1.1" style="shape-rendering:geometricPrecision; text-rendering:geometricPrecision; image-rendering:optimizeQuality; fill-rule:evenodd; clip-rule:evenodd"
viewBox="0 0 6983 2176"
 xmlns:xlink="http://www.w3.org/1999/xlink">
 <defs>
  <style type="text/css">
   <![CDATA[
    .str0 {stroke:#FEFEFE;stroke-width:50}
    .fil0 {fill:none}
   ]]>
  </style>
 </defs>
 <g id="Слой_x0020_1">
  <metadata id="CorelCorpID_0Corel-Layer"/>
  <g id="_742674784">
   <path class="fil0 str0" d="M1036 1395c0,10 2,22 -1,31 -3,7 -3,12 -7,19l-8 13c0,1 0,1 0,1 -4,6 -10,11 -16,15l-32 14c-9,2 -27,2 -34,0l-22 -6c0,0 -2,-1 -2,-1 -4,-2 -5,-2 -8,-4l-22 -19c0,-1 0,-1 0,-1l-5 -7c0,-1 -1,-2 -1,-2l-4 -10c0,0 -1,-1 -1,-1l-3 -10c-1,-11 -4,-22 -2,-34l3 -12c1,-9 8,-19 12,-27 7,-11 17,-18 27,-24l7 -3c3,-2 6,-2 9,-3 16,-4 28,-5 44,-2 6,1 0,0 4,1l4 1c4,1 5,1 9,2l38 32c3,4 3,5 5,9 2,5 1,3 2,8l4 20zm-765 -927l1363 0 0 1103c0,5 -3,4 -6,4 -3,0 -3,0 -6,0l-400 0c-3,0 -4,0 -7,0l-5 0c-1,0 0,0 -2,-1 0,-46 3,-174 -3,-213l-16 -57c0,0 0,-1 0,-1 0,0 0,-1 0,-1 -4,-6 -4,-8 -7,-15 -3,-6 -5,-9 -9,-14l-48 -60c-10,-8 -19,-17 -31,-24l-18 -10c0,0 0,-1 -1,-1 0,0 0,0 -1,0l-29 -13c0,0 -1,0 -1,0l-20 -7c0,0 -1,0 -1,0l-19 -5c-8,-1 -25,-4 -36,-4 -20,0 -50,-1 -68,4 -1,0 -1,1 -1,1l-40 11c-1,1 -1,1 -2,1l-2 0c0,1 0,1 0,1l-56 31c0,0 -1,1 -1,1l-26 21c-4,4 -10,9 -13,14l-32 46c0,0 0,1 0,1l-22 56c0,0 -1,1 -1,2 0,0 0,2 -1,3l-2 11c-6,22 -5,64 -4,86 1,9 0,16 0,25l0 75c0,6 2,34 -2,36 -1,0 -9,0 -12,0l-394 0c-4,0 -6,0 -11,0 -7,0 -7,0 -7,-8l0 -1099zm1533 -171c-4,-1 -53,0 -66,0 -29,-1 -59,0 -92,0l-54 0c-72,-1 -142,0 -213,0l-107 0c-34,1 -71,-1 -107,0l-106 0c-34,-1 -83,0 -120,0l-185 0c-6,-1 -7,-1 -14,0 -35,1 -71,-1 -107,0l-106 0c-34,-1 -83,0 -120,0 -45,-1 -104,1 -146,0 -9,-1 -18,0 -27,0 -24,-1 -55,1 -80,0l-46 0c-1,-1 -2,-1 -4,-1 0,1 -1,1 -1,1 -2,0 -1,0 -2,0l-1 1448c6,3 516,1 586,1 6,0 4,0 11,0 1,24 0,70 0,96 0,21 -1,155 1,159 8,-5 24,-24 32,-31 11,-11 21,-21 32,-32l159 -159c6,-6 10,-11 16,-16 3,-3 5,-5 8,-8 4,-4 4,-7 10,-7 2,5 0,0 3,4 13,15 109,108 123,123l111 111c3,3 5,5 8,8 2,2 1,1 3,3 3,3 2,2 5,4l0 -255 598 0c-3,-5 -1,-1045 -1,-1086 0,-4 1,-358 -1,-363l0 0zm-1362 512l1022 0c-1,-7 -1,-165 0,-172 -12,3 -919,1 -1005,1 -22,0 -17,-4 -17,21 0,34 -2,111 0,144 0,2 0,4 0,6l0 0zm0 235l1022 0c-1,-7 -1,-165 0,-172 -12,3 -919,1 -1005,1 -22,0 -17,-4 -17,21 0,34 -2,111 0,144 0,2 0,4 0,6l0 0z"/>
   <path class="fil0 str0" d="M3548 509c90,-7 195,18 268,48 140,58 265,176 329,313 40,85 56,148 63,258 7,94 -18,192 -49,269 -55,138 -178,266 -312,328 -87,40 -149,56 -258,64 -132,9 -269,-38 -374,-105 -64,-41 -118,-96 -163,-157 -134,-181 -160,-413 -75,-627 14,-35 37,-74 56,-104 39,-61 67,-83 112,-129 11,-12 29,-23 44,-35 109,-81 217,-113 359,-123l0 0zm-289 -283c0,6 0,3 -3,11l-32 58c-13,23 -24,44 -36,66 -25,45 -50,89 -74,135 -11,21 -8,16 -34,21 -14,2 -27,5 -43,8 -29,6 -57,11 -86,16 -198,38 -176,18 -169,74l16 124c7,49 21,124 21,170l-227 239 202 217c33,30 27,24 19,78l-35 279c23,11 144,29 178,35 30,6 59,11 90,17 60,11 57,5 71,31 25,47 49,91 74,137 14,24 25,45 38,68 10,18 26,53 38,66 29,-5 284,-138 301,-139 10,0 133,61 152,70l149 69 12 -18c3,-5 6,-10 9,-17l129 -236c11,-20 6,-20 31,-24 53,-9 293,-59 307,-55 5,-46 -39,-266 -40,-338 16,-12 89,-94 115,-119 11,-10 20,-21 30,-32l55 -59c8,-9 20,-19 27,-30l-228 -243 42 -330c-15,-7 -264,-52 -308,-59 -29,-6 -25,-13 -38,-36 -8,-16 -47,-83 -48,-95 -17,-14 -74,-140 -95,-164 -18,3 -188,87 -230,107 -15,7 -63,34 -76,31l-264 -124c-23,-11 -28,-18 -40,-9zm283 990c24,-24 76,-93 103,-126 39,-48 130,-164 167,-204 12,3 82,62 93,73 -5,10 -325,407 -347,429 -10,-4 -218,-181 -250,-207 -10,-9 -25,-19 -34,-29 3,-11 65,-84 76,-92 24,19 184,153 192,156l0 0zm-16 -585c-274,19 -498,262 -476,561 20,271 261,497 561,475 273,-20 497,-263 475,-562 -20,-271 -261,-496 -560,-474z"/>
   <path class="fil0 str0" d="M6795 656c0,-33 -23,-55 -52,-60 -14,-2 -38,-1 -54,-1l-1157 0c-18,0 -38,1 -55,0 -15,-1 -40,2 -50,-5 -11,-8 -15,-25 -4,-37 10,-11 33,-7 50,-7 18,0 36,0 55,0 12,0 43,3 51,-3l64 -46 -140 0c-120,0 -173,-12 -173,137l0 1008c0,23 10,35 21,45 19,18 41,16 68,16l1309 0c22,0 37,-6 49,-17 11,-10 18,-25 18,-46l0 -259c-6,1 -4,2 -12,2l-117 0c-135,0 -226,-130 -189,-254 17,-55 59,-101 108,-122 32,-14 56,-18 96,-18 23,0 97,3 113,-2 1,-13 1,-33 1,-46l0 -285 0 0zm-527 -554l-608 439c-6,4 -37,25 -40,29 11,1 256,2 265,0l47 -18c16,-6 31,-12 48,-19l431 -165c15,-6 34,-15 49,-19 -2,-5 -19,-27 -24,-33 -11,-16 -70,-91 -72,-97l-90 -119c-5,1 -2,0 -6,2l0 0zm376 1156c-5,1 -1,0 -1,1l-1 3c-4,-1 -4,-1 -7,-3 0,0 0,1 0,1l-2 3 -26 1c0,-33 -3,-18 -5,-26 -1,-2 2,-3 0,-5 0,-1 -1,-1 -1,-1l1 -6c-1,-10 -14,-23 -9,-52 10,-56 76,-80 118,-46 23,19 39,53 21,92 -11,21 -33,37 -58,40 -9,1 -24,-3 -30,-2zm196 -262c-13,11 -26,23 -40,34 -13,10 -8,9 -29,9l-109 0c-79,2 -145,67 -144,149 1,82 67,146 148,146l111 0c16,0 15,-3 25,-11l80 -66 -1 -293 -41 32zm-835 -425l631 0 -74 -202 -70 25c-24,9 -47,17 -70,25l-279 101c-23,8 -46,16 -69,25 -12,4 -63,21 -69,26l0 0zm655 -66c5,3 0,1 0,-3l150 -4c-4,5 2,3 -8,5l-116 -1 0 32 97 0 0 7 23 3c-5,6 2,3 -7,3 -1,0 1,-2 -4,0 5,3 10,3 18,9 20,15 20,35 20,61l0 217c0,35 -1,73 1,108l47 -24c2,-26 0,-55 0,-81l0 -242c0,-32 -3,-42 -18,-62 -9,-12 -27,-30 -46,-35 -10,-3 -140,-2 -161,-1l4 8zm173 1112c23,0 42,-22 47,-42 5,-16 2,-66 2,-86 0,-30 0,-59 0,-89 0,-28 1,-59 0,-87 -8,2 -18,8 -25,11 -7,4 -16,8 -24,12l0 281zm-173 -1112c2,10 11,35 16,41 38,0 81,-2 119,1 5,-2 3,0 4,0 9,0 2,3 7,-3l-23 -3 0 -7 -97 0 0 -32 116 1c10,-2 4,0 8,-5l-150 4c0,4 5,6 0,3zm-16 753l-6 -4c-24,-9 -30,-24 -36,-28l-1 6c0,0 1,0 1,1 2,2 -1,3 0,5 2,8 5,-7 5,26l26 -1 2 -3c0,0 0,-1 0,-1 3,2 3,2 7,3l1 -3c0,-1 -4,0 1,-1z"/>
  </g>
 </g>
</svg>
